HIERARCHY
ROOT Body Controller
{
	OFFSET	0.00	0.00	0.00
	CHANNELS 6 Xposition Yposition Zposition Zrotation Xrotation Yrotation
	JOINT Body Controller.001
	{
		OFFSET	 0.000000	-0.036916	-0.004642
		CHANNELS 3 Zrotation Xrotation Yrotation
		JOINT Body Controller.002
		{
			OFFSET	 0.000000	 0.000000	 0.076729
			CHANNELS 3 Zrotation Xrotation Yrotation
			JOINT Body Controller.003
			{
				OFFSET	 0.000000	 0.000000	 0.078516
				CHANNELS 3 Zrotation Xrotation Yrotation
				JOINT Body Controller.004
				{
					OFFSET	 0.000000	 0.000000	 0.042842
					CHANNELS 3 Zrotation Xrotation Yrotation
					End Site
					{
						OFFSET	 0.000000	 0.000000	 0.042842
					}
				}
			}
			JOINT Shoulder.L
			{
				OFFSET	 0.000000	 0.000000	 0.078516
				CHANNELS 3 Zrotation Xrotation Yrotation
				JOINT Upperarm.L
				{
					OFFSET	-0.018201	 0.028733	 0.072586
					CHANNELS 3 Zrotation Xrotation Yrotation
					JOINT Forearm.L
					{
						OFFSET	 0.000000	 0.000000	 0.097523
						CHANNELS 3 Zrotation Xrotation Yrotation
						JOINT Hand.L 1
						{
							OFFSET	 0.000000	 0.000000	 0.104201
							CHANNELS 3 Zrotation Xrotation Yrotation
							End Site
							{
								OFFSET	 0.000000	 0.000000	 0.104201
							}
						}
					}
				}
			}
			JOINT Shoulder.R
			{
				OFFSET	 0.000000	 0.000000	 0.078516
				CHANNELS 3 Zrotation Xrotation Yrotation
				JOINT Upperarm.R
				{
					OFFSET	 0.018201	 0.028733	 0.072586
					CHANNELS 3 Zrotation Xrotation Yrotation
					JOINT Forearm.R
					{
						OFFSET	-0.000000	 0.000000	 0.097523
						CHANNELS 3 Zrotation Xrotation Yrotation
						JOINT Hand.R 1
						{
							OFFSET	 0.000000	 0.000000	 0.104201
							CHANNELS 3 Zrotation Xrotation Yrotation
							End Site
							{
								OFFSET	 0.000000	 0.000000	 0.104201
							}
						}
					}
				}
			}
		}
	}
	JOINT Hip
	{
		OFFSET	 0.000000	 0.025198	-0.007161
		CHANNELS 3 Zrotation Xrotation Yrotation
		JOINT Upperleg.L
		{
			OFFSET	 0.037329	-0.035320	 0.000704
			CHANNELS 3 Zrotation Xrotation Yrotation
			JOINT Foreleg.L
			{
				OFFSET	-0.000000	 0.000000	 0.142509
				CHANNELS 3 Zrotation Xrotation Yrotation
				JOINT Foot.L 1
				{
					OFFSET	 0.000000	 0.000000	 0.128640
					CHANNELS 3 Zrotation Xrotation Yrotation
					End Site
					{
						OFFSET	 0.000000	 0.000000	 0.128640
					}
				}
				JOINT Heel.L
				{
					OFFSET	-0.003987	 0.000323	 0.137245
					CHANNELS 3 Zrotation Xrotation Yrotation
					End Site
					{
						OFFSET	-0.003987	 0.000323	 0.137245
					}
				}
			}
		}
		JOINT Upperleg.R
		{
			OFFSET	 0.037329	 0.035320	 0.000704
			CHANNELS 3 Zrotation Xrotation Yrotation
			JOINT Foreleg.R
			{
				OFFSET	 0.000000	 0.000000	 0.142509
				CHANNELS 3 Zrotation Xrotation Yrotation
				JOINT Foot.R 1
				{
					OFFSET	 0.000000	 0.000000	 0.128640
					CHANNELS 3 Zrotation Xrotation Yrotation
					End Site
					{
						OFFSET	 0.000000	 0.000000	 0.128640
					}
				}
				JOINT Heel.R
				{
					OFFSET	 0.003987	 0.000323	 0.137245
					CHANNELS 3 Zrotation Xrotation Yrotation
					End Site
					{
						OFFSET	 0.003987	 0.000323	 0.137245
					}
				}
			}
		}
	}
}
MOTION
Frames:    5
Frame Time: 0.01666667
-0.140154	 0.274478	 0.354931	-36.906690	-88.310780	 44.644530	-0.000029	-71.966360	 180.000000	-0.000009	 27.986970	 0.000000	 0.000000	 1.202067	 0.000000	 0.000000	-10.243090	-0.000000	 148.635400	-78.341930	-108.121200	-85.905300	 3.943081	-76.432560	-4.242000	-10.646670	 0.664728	-4.700796	 5.869529	-7.148424	-148.635400	-78.341930	 108.121200	 85.916410	 3.940227	 76.390370	 4.249562	-10.634580	-0.658426	 4.697426	 5.874765	 7.183120	-90.000010	-0.000009	-180.000000	 65.110950	-5.567404	-166.177300	 72.235250	-14.560090	-80.394480	 71.498250	 71.406520	 2.392975	-88.575780	 30.995550	-2.561642	-176.568200	-84.267210	-90.592900	-84.306890	-0.000017	-0.000057	-80.917750	 65.889660	-9.886209	 88.575770	 30.995540	 2.561643
-0.140154	 0.274478	 0.354931	-36.906690	-88.310780	 44.644530	-0.000029	-71.966360	 180.000000	-0.000009	 27.986970	 0.000000	 0.000000	 1.202067	 0.000000	 0.000000	-10.243090	-0.000000	 148.635400	-78.341930	-108.121200	-85.905280	 3.943076	-76.432720	-4.241980	-10.646920	 0.664755	-4.700812	 5.869730	-7.148273	-148.635400	-78.341930	 108.121200	 85.916450	 3.940218	 76.390340	 4.249572	-10.634700	-0.658432	 4.697415	 5.874926	 7.183139	-90.000010	-0.000009	-180.000000	 65.110600	-5.567732	-166.176900	 72.234380	-14.560540	-80.394240	 71.499890	 71.406430	 2.391295	-88.575780	 30.995550	-2.561642	-176.568700	-84.267180	-90.593400	-84.306900	-0.000016	-0.000056	-80.917760	 65.889600	-9.886201	 88.575770	 30.995540	 2.561643
-0.140154	 0.274478	 0.354931	-36.906690	-88.310780	 44.644530	-0.000029	-71.966360	 180.000000	-0.000009	 27.986970	 0.000000	 0.000000	 1.202067	 0.000000	 0.000000	-10.243090	-0.000000	 148.635400	-78.341930	-108.121200	-85.905300	 3.943082	-76.432810	-4.241957	-10.646990	 0.664777	-4.700814	 5.869815	-7.148192	-148.635400	-78.341930	 108.121200	 85.916480	 3.940210	 76.390330	 4.249576	-10.634750	-0.658424	 4.697412	 5.875000	 7.183134	-90.000010	-0.000009	-180.000000	 65.110660	-5.567818	-166.177000	 72.234430	-14.560510	-80.394080	 71.499950	 71.406410	 2.391243	-88.575780	 30.995550	-2.561642	-176.568900	-84.267180	-90.593660	-84.306900	-0.000011	-0.000069	-80.917750	 65.889600	-9.886215	 88.575770	 30.995540	 2.561643
-0.140154	 0.274478	 0.354931	-36.906690	-88.310780	 44.644530	-0.000029	-71.966360	 180.000000	-0.000009	 27.986970	 0.000000	 0.000000	 1.202067	 0.000000	 0.000000	-10.243090	-0.000000	 148.635400	-78.341930	-108.121200	-85.905330	 3.943067	-76.432890	-4.241951	-10.647180	 0.664803	-4.700814	 5.870023	-7.148105	-148.635400	-78.341930	 108.121200	 85.916500	 3.940206	 76.390300	 4.249574	-10.634840	-0.658435	 4.697415	 5.875129	 7.183152	-90.000010	-0.000009	-180.000000	 65.110730	-5.567922	-166.177100	 72.234530	-14.560450	-80.393840	 71.499950	 71.406320	 2.391221	-88.575780	 30.995550	-2.561642	-176.569300	-84.267180	-90.594060	-84.306910	-0.000021	-0.000060	-80.917750	 65.889540	-9.886182	 88.575770	 30.995540	 2.561643
-0.140154	 0.274478	 0.354931	-36.906690	-88.310780	 44.644530	-0.000029	-71.966360	 180.000000	-0.000009	 27.986970	 0.000000	 0.000000	 1.202067	 0.000000	 0.000000	-10.243090	-0.000000	 148.635400	-78.341930	-108.121200	-85.905340	 3.943058	-76.432910	-4.241951	-10.647220	 0.664803	-4.700820	 5.870075	-7.148088	-148.635400	-78.341930	 108.121200	 85.916510	 3.940208	 76.390300	 4.249580	-10.634920	-0.658442	 4.697404	 5.875213	 7.183157	-90.000010	-0.000009	-180.000000	 65.110760	-5.567943	-166.177100	 72.234570	-14.560410	-80.393750	 71.500020	 71.406270	 2.391171	-88.575780	 30.995550	-2.561642	-176.569600	-84.267180	-90.594360	-84.306900	-0.000016	-0.000065	-80.917760	 65.889500	-9.886190	 88.575770	 30.995540	 2.561643
